<svg class="animated" id="freepik_stories-halloween-pumpkin-with-a-face-mask" xmlns="http://www.w3.org/2000/svg" viewBox="0 0 500 500" version="1.1" xmlns:xlink="http://www.w3.org/1999/xlink" xmlns:svgjs="http://svgjs.com/svgjs"><style>svg#freepik_stories-halloween-pumpkin-with-a-face-mask:not(.animated) .animable {opacity: 0;}svg#freepik_stories-halloween-pumpkin-with-a-face-mask.animated #freepik--background-complete--inject-1 {animation: 1.5s Infinite  linear wind;animation-delay: 0s;}svg#freepik_stories-halloween-pumpkin-with-a-face-mask.animated #freepik--Smoke--inject-1 {animation: 1.5s Infinite  linear wind;animation-delay: 0s;}svg#freepik_stories-halloween-pumpkin-with-a-face-mask.animated #freepik--pumpkin-2--inject-1 {animation: 1.5s Infinite  linear floating;animation-delay: 0s;}svg#freepik_stories-halloween-pumpkin-with-a-face-mask.animated #freepik--pumpkin-1--inject-1 {animation: 1.5s Infinite  linear floating;animation-delay: 0s;}svg#freepik_stories-halloween-pumpkin-with-a-face-mask.animated #freepik--Skull--inject-1 {animation: 1.5s Infinite  linear heartbeat;animation-delay: 0s;}            @keyframes wind {                0% {                    transform: rotate( 0deg );                }                25% {                    transform: rotate( 1deg );                }                75% {                    transform: rotate( -1deg );                }            }                    @keyframes floating {                0% {                    opacity: 1;                    transform: translateY(0px);                }                50% {                    transform: translateY(-10px);                }                100% {                    opacity: 1;                    transform: translateY(0px);                }            }                    @keyframes heartbeat {                0% {                    transform: scale(1);                }                10% {                    transform: scale(1.1);                }                30% {                    transform: scale(1);                }                40% {                    transform: scale(1);                }                50% {                    transform: scale(1.1);                }                60% {                    transform: scale(1);                }                100% {                    transform: scale(1);                }            }        </style><g id="freepik--background-complete--inject-1" class="animable" style="transform-origin: 250px 228.23px;"><rect y="382.4" width="500" height="0.25" style="fill: rgb(235, 235, 235); transform-origin: 250px 382.525px;" id="elh52yoidaez5" class="animable"></rect><rect x="416.78" y="398.49" width="33.12" height="0.25" style="fill: rgb(235, 235, 235); transform-origin: 433.34px 398.615px;" id="elpglqdo0v5gm" class="animable"></rect><rect x="322.53" y="401.21" width="8.69" height="0.25" style="fill: rgb(235, 235, 235); transform-origin: 326.875px 401.335px;" id="el4iy3634b7kg" class="animable"></rect><rect x="396.59" y="389.21" width="19.19" height="0.25" style="fill: rgb(235, 235, 235); transform-origin: 406.185px 389.335px;" id="ele9io0g0dlmd" class="animable"></rect><rect x="52.46" y="390.89" width="43.19" height="0.25" style="fill: rgb(235, 235, 235); transform-origin: 74.055px 391.015px;" id="el3hbpnxfl1w2" class="animable"></rect><rect x="104.56" y="390.89" width="6.33" height="0.25" style="fill: rgb(235, 235, 235); transform-origin: 107.725px 391.015px;" id="el0lktxh6qtltl" class="animable"></rect><rect x="131.47" y="395.11" width="93.68" height="0.25" style="fill: rgb(235, 235, 235); transform-origin: 178.31px 395.235px;" id="elg45l6axbmi6" class="animable"></rect><path d="M237,337.8H43.91a5.71,5.71,0,0,1-5.7-5.71V60.66A5.71,5.71,0,0,1,43.91,55H237a5.71,5.71,0,0,1,5.71,5.71V332.09A5.71,5.71,0,0,1,237,337.8ZM43.91,55.2a5.46,5.46,0,0,0-5.45,5.46V332.09a5.46,5.46,0,0,0,5.45,5.46H237a5.47,5.47,0,0,0,5.46-5.46V60.66A5.47,5.47,0,0,0,237,55.2Z" style="fill: rgb(235, 235, 235); transform-origin: 140.46px 196.4px;" id="el2jrp0qtce09" class="animable"></path><path d="M453.31,337.8H260.21a5.72,5.72,0,0,1-5.71-5.71V60.66A5.72,5.72,0,0,1,260.21,55h193.1A5.71,5.71,0,0,1,459,60.66V332.09A5.71,5.71,0,0,1,453.31,337.8ZM260.21,55.2a5.47,5.47,0,0,0-5.46,5.46V332.09a5.47,5.47,0,0,0,5.46,5.46h193.1a5.47,5.47,0,0,0,5.46-5.46V60.66a5.47,5.47,0,0,0-5.46-5.46Z" style="fill: rgb(235, 235, 235); transform-origin: 356.75px 196.4px;" id="elpt06pyxnpmn" class="animable"></path><path d="M429.34,252.77a.51.51,0,0,1-.36-.15c-28.52-28.49-83.63-18.7-84.18-18.6a.48.48,0,0,1-.43-.12.49.49,0,0,1-.16-.42c3.38-29.93-3.51-67.63-3.58-68a.49.49,0,0,1,.18-.49c27.87-21.66,44.64-80.24,44.81-80.82a.5.5,0,0,1,1,0c9.29,42.72,46.2,50.59,46.57,50.66a.5.5,0,0,1,.36.7c-21.63,48-3.88,115.92-3.7,116.6a.5.5,0,0,1-.23.56A.47.47,0,0,1,429.34,252.77Zm-62.06-21.45c18.41,0,44,3.35,61.15,19.38-2.59-10.83-15.56-71,3.93-115-4.82-1.21-37-10.67-46.33-49.43-3.09,10.13-19.19,59.53-44.37,79.34.64,3.6,6.69,38.8,3.62,67.34A145.4,145.4,0,0,1,367.28,231.32Z" style="fill: rgb(224, 224, 224); transform-origin: 387.108px 168.22px;" id="elzgxcsfjv5fl" class="animable"></path><path d="M436,262.27a.51.51,0,0,1-.41-.21l-6.62-9.5C408,229.62,382,182.9,381.77,182.43a.7.7,0,0,1-.06-.19c-2.31-23.45,3.83-97.25,3.89-98l1-13.46a.49.49,0,0,1,.54-.46.5.5,0,0,1,.46.53l-1,13.47c-.07.74-6.18,74.24-3.91,97.7,1.3,2.34,26.61,47.48,47,69.9l6.66,9.55a.5.5,0,0,1-.12.7A.52.52,0,0,1,436,262.27Z" style="fill: rgb(224, 224, 224); transform-origin: 408.817px 166.294px;" id="elk4f6glveuwg" class="animable"></path><path d="M382.21,182.69c-.24,0-24.11-.2-41.44-16.95a.5.5,0,0,1,0-.71.49.49,0,0,1,.7,0c16.47,15.92,38.94,16.64,40.65,16.67,19-8.32,50.25-46.29,50.57-46.67l8.43-10.44a.51.51,0,0,1,.71-.08.49.49,0,0,1,.07.7l-8.44,10.45c-.32.39-31.86,38.67-51,47A.71.71,0,0,1,382.21,182.69Z" style="fill: rgb(224, 224, 224); transform-origin: 391.319px 153.546px;" id="eln8pn7oyruzr" class="animable"></path><path d="M344.71,234a.49.49,0,0,1-.37-.16.5.5,0,0,1,0-.71c3.3-3,6.38-6.08,9.23-9.18,1.91-28.11-7.14-53.37-7.23-53.63a.5.5,0,0,1,.16-.56c27-21.34,37.61-67.24,37.71-67.7a.5.5,0,0,1,1,.22c-.11.47-10.72,46.39-37.79,68,1.06,3.08,8.72,26.4,7.25,52.45,3-3.34,5.77-6.69,8.27-10-1.06-17.05-7.05-36.7-7.12-36.89a.52.52,0,0,1,.1-.48C372.8,156,383.1,118,383.2,117.57a.5.5,0,0,1,.42-.37.53.53,0,0,1,.5.25c4.59,8.19,35.27,32.76,35.58,33a.48.48,0,0,1,.16.56c-9.57,25.57-6.3,80-6.27,80.53a.51.51,0,0,1-.21.44.49.49,0,0,1-.48,0c-24.39-10.6-55.92-7.64-58.58-7.37-2.87,3.12-6,6.22-9.28,9.23A.46.46,0,0,1,344.71,234Zm22.91-10.94c11.93,0,29.71,1.3,44.93,7.71-.37-6.87-2.6-55.62,6.25-79.79-3.19-2.55-29-23.36-34.94-32.09-1.82,6.4-11.7,39.19-27,57,.71,2.36,5.83,19.91,7,35.71,3.06-4.07,5.72-8,8-11.56a136.57,136.57,0,0,0-5-20.06.49.49,0,0,1,.07-.45c4.81-6.88,15-39,15.07-39.29a.5.5,0,0,1,.42-.34.47.47,0,0,1,.48.24c3.84,6.53,22.8,24.17,23,24.34a.52.52,0,0,1,.15.48c-4.9,21-2.78,50.89-2.76,51.19a.52.52,0,0,1-.21.45.5.5,0,0,1-.49.05c-12.81-5.6-36.47-3.42-38.84-3.18-2.53,3.3-5.32,6.69-8.38,10.08C357.39,223.4,361.81,223.09,367.62,223.09Zm9.41-11.2c8.06,0,18.05.7,25.16,3.56-.3-4.93-1.63-31.21,2.77-50.4-2.12-2-17.72-16.61-22.38-23.46-1.78,5.6-10.23,31.6-14.73,38.33a141.31,141.31,0,0,1,4.82,18.85c2.32-3.73,4.18-7,5.61-9.72l-3.79-7.33a.49.49,0,0,1,0-.52c2.19-3.16,6.64-17.62,6.69-17.76a.48.48,0,0,1,.41-.35.49.49,0,0,1,.49.23c1.25,2,9.09,7.64,13.06,10.37a.5.5,0,0,1,.21.51c-1.49,7.69-2.7,24.93-2.71,25.11a.49.49,0,0,1-.2.36.48.48,0,0,1-.4.09c-4.81-.95-17.64.68-19.42.91-2.3,3.64-5,7.62-8.13,11.75C366.59,212.24,371.33,211.89,377,211.89Zm2.1-22.33c-1.46,2.76-3.39,6.18-5.79,10,3.3-.42,13.54-1.6,18.37-.89.22-3,1.31-17.27,2.63-24.36-1.63-1.13-9.81-6.84-12.46-9.7-1,3.17-4.37,13.68-6.37,16.89l3.33,6.45c1.7-3.26,2.65-5.38,2.86-5.87l-.37-5.75a.51.51,0,0,1,.2-.43.52.52,0,0,1,.48-.07l6.54,2.48a.5.5,0,0,1,.31.58l-2.24,10.26a.5.5,0,0,1-.49.39Zm.53-1h6.07l2.06-9.44-5.41-2.06.33,5.09a.59.59,0,0,1,0,.23C382.63,182.46,381.64,184.77,379.66,188.56Z" style="fill: rgb(224, 224, 224); transform-origin: 382.043px 167.831px;" id="elh372wz4gjvj" class="animable"></path><path d="M381.87,273.92a.5.5,0,0,1-.5-.5V182.19a.5.5,0,1,1,1,0v91.23A.5.5,0,0,1,381.87,273.92Z" style="fill: rgb(224, 224, 224); transform-origin: 381.87px 227.805px;" id="elwdiapak7nwd" class="animable"></path><path d="M385.23,274.62a3.39,3.39,0,1,1-3.36-3.83A3.61,3.61,0,0,1,385.23,274.62Z" style="fill: rgb(224, 224, 224); transform-origin: 381.858px 274.18px;" id="el3p76ltmz5v" class="animable"></path><path d="M381.87,277.39a1.88,1.88,0,1,1-2.18,1.85A2,2,0,0,1,381.87,277.39Z" style="fill: rgb(224, 224, 224); transform-origin: 381.57px 279.254px;" id="ela70eesy4x05" class="animable"></path><path d="M385.75,284.77h-.06a.25.25,0,0,1-.18-.3l.68-2.87-4.37-2.93a.26.26,0,0,1-.11-.21.24.24,0,0,1,.12-.21l4.91-3a.26.26,0,0,1,.35.07l1.91,3a.25.25,0,0,1-.08.34.26.26,0,0,1-.35-.08l-1.78-2.82-4.37,2.7,4.2,2.82a.24.24,0,0,1,.1.26l-.72,3A.26.26,0,0,1,385.75,284.77Z" style="fill: rgb(224, 224, 224); transform-origin: 385.373px 279.99px;" id="elg76oa8nm1bc" class="animable"></path><path d="M388.26,282.85a.24.24,0,0,1-.23-.15l-1.21-3-4.91-1a.26.26,0,0,1-.2-.25.25.25,0,0,1,.19-.24l4.45-1.07a.26.26,0,0,1,.24.07l2.37,2.31a.25.25,0,0,1,0,.36.24.24,0,0,1-.35,0l-2.27-2.22-3.24.77,4,.83a.25.25,0,0,1,.18.15l1.25,3.1a.26.26,0,0,1-.14.33Z" style="fill: rgb(224, 224, 224); transform-origin: 385.373px 279.992px;" id="eliq0rdufzcn" class="animable"></path><path d="M378,284.77a.26.26,0,0,1-.25-.19l-.72-3a.24.24,0,0,1,.1-.26l4.2-2.82-4.37-2.7-1.78,2.82a.26.26,0,0,1-.35.08.25.25,0,0,1-.08-.34l1.92-3a.24.24,0,0,1,.34-.07l4.91,3a.22.22,0,0,1,.12.21.26.26,0,0,1-.11.21l-4.37,2.93.68,2.87a.25.25,0,0,1-.18.3Z" style="fill: rgb(224, 224, 224); transform-origin: 378.377px 280.029px;" id="el5ea3ciyqljc" class="animable"></path><path d="M375.48,282.85h-.09a.26.26,0,0,1-.14-.33l1.25-3.1a.25.25,0,0,1,.18-.15l4-.83-3.24-.77-2.27,2.22a.24.24,0,0,1-.35,0,.25.25,0,0,1,0-.36l2.37-2.31a.26.26,0,0,1,.24-.07l4.45,1.07a.25.25,0,0,1,.19.24.26.26,0,0,1-.2.25l-4.91,1-1.21,3A.24.24,0,0,1,375.48,282.85Z" style="fill: rgb(224, 224, 224); transform-origin: 378.407px 280px;" id="el5lytiw80len" class="animable"></path><path d="M130.47,381.79a.5.5,0,0,1-.48-.37c-.3-1.09-30.27-108.67-73.1-127.1a.49.49,0,0,1-.29-.39.48.48,0,0,1,.18-.46c.23-.19,23.11-19.1,28.17-48.55s-14.66-87-14.86-87.62a.5.5,0,0,1,.23-.6.49.49,0,0,1,.63.13c25.39,32.07,69.33,49,101.73,57.56a364.78,364.78,0,0,0,64.95,11,.5.5,0,0,1,.36.18.47.47,0,0,1,.11.38c-.07.57-7.11,57.54,4.11,86.42a.48.48,0,0,1,0,.39.45.45,0,0,1-.28.26,237.33,237.33,0,0,0-48.49,26.12c-23.15,16.18-52.79,43.58-62.47,82.27a.52.52,0,0,1-.48.38ZM58,253.72c39.82,18.12,68.33,111.58,72.43,125.66,10.21-38.05,39.48-65.05,62.43-81.07a239.73,239.73,0,0,1,48.22-26.05c-10.49-27.74-4.74-80.07-4.06-85.91a368,368,0,0,1-64.59-11C140.62,167,97.68,150.49,71.9,119.58c3.79,11.63,18.53,59.37,14,85.51C81.28,232.18,61.74,250.45,58,253.72Z" style="fill: rgb(224, 224, 224); transform-origin: 149.422px 249.214px;" id="elh9aq9jsk6bt" class="animable"></path><path d="M57.09,254.36a.5.5,0,0,1-.5-.48.5.5,0,0,1,.48-.52c81.09-3.69,125.74-21.9,148.92-36.53,25.08-15.83,31.09-31,31.15-31.12a.49.49,0,0,1,.64-.29.5.5,0,0,1,.29.65c-.06.15-6.14,15.54-31.44,31.54-23.28,14.72-68.11,33-149.52,36.75Z" style="fill: rgb(224, 224, 224); transform-origin: 147.347px 219.873px;" id="elqdd7waz2o3d" class="animable"></path><path d="M241.75,273.05h-.05c-27.59-2.95-53.77-13-77.84-29.82-19.24-13.45-37.18-31.26-53.31-52.93-27.46-36.87-40.33-72.64-40.46-73L59.32,92a.5.5,0,1,1,.92-.39L71,116.94c.14.39,13,36,40.35,72.79,25.24,33.89,68.35,75.68,130.43,82.32a.5.5,0,0,1-.05,1Z" style="fill: rgb(224, 224, 224); transform-origin: 150.763px 182.169px;" id="elbr12gvyk43j" class="animable"></path><path d="M130.47,381.79a.51.51,0,0,1-.5-.47c-3.23-53.63,28.41-141.39,28.73-142.27a.5.5,0,1,1,.94.34c-.32.88-31.89,88.45-28.67,141.87a.5.5,0,0,1-.47.53Z" style="fill: rgb(224, 224, 224); transform-origin: 144.707px 310.248px;" id="el2ngeixy3kw2" class="animable"></path><path d="M134.35,330.18h-.13a.5.5,0,0,1-.35-.35c-6.62-24.2-49.39-77.4-49.82-77.94a.5.5,0,0,1,0-.56c17.7-30.82,11.16-85.91,11.09-86.46a.52.52,0,0,1,.18-.46.51.51,0,0,1,.49-.07c.81.3,81.31,30,136.91,30h.83a.51.51,0,0,1,.5.5.5.5,0,0,1-.5.5h-.82c-52.89,0-128.13-26.77-136.51-29.81.74,7,5.35,56.89-11.13,86,3.26,4.08,42.43,53.36,49.54,77.2,5.46-5.53,46.66-46.64,79.72-61.79-.42-3.85-4-37.28-2.09-53.69-6.7-1.7-89.41-22.75-105.3-28.91,1.24,6.94,8.62,49.62,5.58,64.13,2,2.48,22.35,28.84,28.58,51.25,4.06-4.84,27.39-31.71,51.77-40.56-.56-3.24-3.77-23.24.25-34.43-6.09-.78-50.21-6.6-64.38-13.06.75,4.2,3.6,21.12,3.11,33.06,1.68,1.54,13.83,12.8,18,21.74,2.83-2.09,17.06-12.44,25.66-16.25-.38-2-2.11-11.08-2.87-16.39-3-.08-19.79-.63-24.77-3.2l.28,10.67a.52.52,0,0,1-.49.51.51.51,0,0,1-.51-.49l-.3-11.62a.48.48,0,0,1,.29-.46.47.47,0,0,1,.54.08c2.82,2.5,19.3,3.39,25.41,3.52a.5.5,0,0,1,.48.43c.81,5.84,3,17,3,17.15a.52.52,0,0,1-.29.56c-9.37,4-26.17,16.53-26.34,16.66a.48.48,0,0,1-.42.08.49.49,0,0,1-.33-.28c-4-9.28-18.06-22-18.2-22.12a.51.51,0,0,1-.17-.4c.62-13.54-3.22-33.83-3.26-34a.5.5,0,0,1,.72-.54c13.6,6.88,65.06,13.41,65.58,13.47a.5.5,0,0,1,.36.24.53.53,0,0,1,0,.44c-4.55,11.52-.4,34.67-.35,34.9a.51.51,0,0,1-.33.56c-26.58,9.43-52.09,40.82-52.34,41.14a.5.5,0,0,1-.88-.19c-6.11-23.41-28.56-51.72-28.79-52a.53.53,0,0,1-.1-.42c3.34-15-5.61-64.36-5.7-64.86a.51.51,0,0,1,.18-.48.5.5,0,0,1,.51-.07c13.94,5.85,105.51,29.08,106.43,29.31a.5.5,0,0,1,.38.55c-2.09,17,2,53.87,2.07,54.24a.5.5,0,0,1-.29.52c-35.17,16-79.89,61.88-80.34,62.34A.51.51,0,0,1,134.35,330.18Z" style="fill: rgb(224, 224, 224); transform-origin: 159.007px 247.243px;" id="elnnrvn7uogp" class="animable"></path><rect x="288.35" y="144.2" width="1.28" height="9.63" style="fill: rgb(224, 224, 224); transform-origin: 288.99px 149.015px;" id="elachdnpf1ga7" class="animable"></rect><rect x="282.01" y="152.97" width="13.97" height="77.21" style="fill: rgb(235, 235, 235); transform-origin: 288.995px 191.575px;" id="elaqjm5qbhbt" class="animable"></rect><path d="M289.22,151.32s7.18-1.06,8.23,0-1.24,5.27-1.24,7.91.19,6.33-1.4,5.54,1.55-5.11-1.33-6.91-3.52,11.66-4.26,15.35-2.84,3.69-3.11,2.11-1.05-19-1.84-18.46-.1,5-2,4.74-1.4-6.19-1.93-8.63S283.9,151.78,289.22,151.32Z" style="fill: rgb(245, 245, 245); transform-origin: 289.01px 163.586px;" id="elufeud9jag5b" class="animable"></path><path d="M289,128.5s10.91,18.07,0,18.07S289,128.5,289,128.5Z" style="fill: rgb(224, 224, 224); transform-origin: 289px 137.535px;" id="elk9lb2gnijvm" class="animable"></path><path d="M289,135.33s6.15,10.19,0,10.19S289,135.33,289,135.33Z" style="fill: rgb(250, 250, 250); transform-origin: 289px 140.425px;" id="elth8ys0ebou" class="animable"></path><rect x="339.22" y="144.2" width="1.28" height="9.63" style="fill: rgb(224, 224, 224); transform-origin: 339.86px 149.015px;" id="eljnrq4j60tb" class="animable"></rect><rect x="332.87" y="152.97" width="13.97" height="77.21" style="fill: rgb(235, 235, 235); transform-origin: 339.855px 191.575px;" id="ellc3j40m2jpo" class="animable"></rect><path d="M340.09,151.32s7.17-1.06,8.22,0-1.24,5.27-1.24,7.91.19,6.33-1.39,5.54,1.54-5.11-1.34-6.91-3.51,11.66-4.25,15.35-2.85,3.69-3.12,2.11-1.05-19-1.84-18.46-.1,5-2,4.74-1.4-6.19-1.93-8.63S334.77,151.78,340.09,151.32Z" style="fill: rgb(245, 245, 245); transform-origin: 339.87px 163.586px;" id="elq39eoabl4fc" class="animable"></path><path d="M339.86,128.5s10.91,18.07,0,18.07S339.86,128.5,339.86,128.5Z" style="fill: rgb(224, 224, 224); transform-origin: 339.86px 137.535px;" id="el4nrbtvr2x8" class="animable"></path><path d="M339.86,135.33s6.15,10.19,0,10.19S339.86,135.33,339.86,135.33Z" style="fill: rgb(250, 250, 250); transform-origin: 339.86px 140.425px;" id="elxl8thaf3hz" class="animable"></path><rect x="237.49" y="144.2" width="1.28" height="9.63" style="fill: rgb(224, 224, 224); transform-origin: 238.13px 149.015px;" id="el4qoe9qnp8zs" class="animable"></rect><rect x="231.15" y="152.97" width="13.97" height="77.21" style="fill: rgb(235, 235, 235); transform-origin: 238.135px 191.575px;" id="elbv9l2glfy48" class="animable"></rect><path d="M238.36,151.32s7.17-1.06,8.23,0-1.24,5.27-1.24,7.91.18,6.33-1.4,5.54,1.55-5.11-1.34-6.91-3.51,11.66-4.25,15.35-2.85,3.69-3.11,2.11-1.06-19-1.85-18.46-.09,5-2,4.74-1.41-6.19-1.93-8.63S233,151.78,238.36,151.32Z" style="fill: rgb(245, 245, 245); transform-origin: 238.147px 163.586px;" id="ela2rob48v1xl" class="animable"></path><path d="M238.13,128.5s10.92,18.07,0,18.07S238.13,128.5,238.13,128.5Z" style="fill: rgb(224, 224, 224); transform-origin: 238.13px 137.535px;" id="elcv6spo460de" class="animable"></path><path d="M238.13,135.33s6.15,10.19,0,10.19S238.13,135.33,238.13,135.33Z" style="fill: rgb(250, 250, 250); transform-origin: 238.13px 140.425px;" id="elqd5ojicjdvs" class="animable"></path><rect x="279.11" y="222.88" width="19.78" height="13.43" style="fill: rgb(224, 224, 224); transform-origin: 289px 229.595px;" id="eledjet1d27yf" class="animable"></rect><path d="M289,252h0a11.34,11.34,0,0,1-11.34-11.34v-4.32h22.68v4.32A11.34,11.34,0,0,1,289,252Z" style="fill: rgb(224, 224, 224); transform-origin: 289px 244.17px;" id="elzkljb9thywm" class="animable"></path><path d="M300.72,238.54H277.27a2.5,2.5,0,0,1-2.5-2.5h0a2.5,2.5,0,0,1,2.5-2.51h23.45a2.5,2.5,0,0,1,2.5,2.51h0A2.5,2.5,0,0,1,300.72,238.54Z" style="fill: rgb(230, 230, 230); transform-origin: 288.995px 236.035px;" id="elwp0gk94tbd" class="animable"></path><rect x="329.97" y="222.88" width="19.78" height="13.43" style="fill: rgb(224, 224, 224); transform-origin: 339.86px 229.595px;" id="elg33uz7d4bim" class="animable"></rect><path d="M339.86,252h0a11.34,11.34,0,0,1-11.34-11.34v-4.32H351.2v4.32A11.34,11.34,0,0,1,339.86,252Z" style="fill: rgb(224, 224, 224); transform-origin: 339.86px 244.17px;" id="eljn81dra539" class="animable"></path><path d="M351.58,238.54H328.14a2.5,2.5,0,0,1-2.51-2.5h0a2.51,2.51,0,0,1,2.51-2.51h23.44a2.51,2.51,0,0,1,2.51,2.51h0A2.5,2.5,0,0,1,351.58,238.54Z" style="fill: rgb(230, 230, 230); transform-origin: 339.86px 236.035px;" id="elani548lehih" class="animable"></path><rect x="228.24" y="222.88" width="19.78" height="13.43" style="fill: rgb(224, 224, 224); transform-origin: 238.13px 229.595px;" id="el3ffz0cve4if" class="animable"></rect><path d="M238.13,252h0a11.34,11.34,0,0,1-11.34-11.34v-4.32h22.68v4.32A11.34,11.34,0,0,1,238.13,252Z" style="fill: rgb(224, 224, 224); transform-origin: 238.13px 244.17px;" id="elxepw73zhr1b" class="animable"></path><path d="M249.86,238.54H226.41a2.5,2.5,0,0,1-2.5-2.5h0a2.5,2.5,0,0,1,2.5-2.51h23.45a2.5,2.5,0,0,1,2.5,2.51h0A2.5,2.5,0,0,1,249.86,238.54Z" style="fill: rgb(230, 230, 230); transform-origin: 238.135px 236.035px;" id="ellyefmtwe3eh" class="animable"></path><rect x="284.75" y="244.14" width="8.49" height="123.4" style="fill: rgb(224, 224, 224); transform-origin: 288.995px 305.84px;" id="el49xtaz0ps8p" class="animable"></rect><path d="M312,286.18H266a31.91,31.91,0,0,1-31.87-31.86V244.14h8v10.18A23.9,23.9,0,0,0,266,278.18h46a23.9,23.9,0,0,0,23.86-23.86V244.14h8v10.18A31.91,31.91,0,0,1,312,286.18Z" style="fill: rgb(224, 224, 224); transform-origin: 288.995px 265.16px;" id="elf879b2xxrvm" class="animable"></path><path d="M297.48,360.44v-2.82h-17v2.82a6.3,6.3,0,0,1-6.3,6.3h0v5.36h29.57v-5.36h0A6.3,6.3,0,0,1,297.48,360.44Z" style="fill: rgb(230, 230, 230); transform-origin: 288.965px 364.86px;" id="elp2op8d23jj" class="animable"></path><path d="M268.23,370.89h41.53a10.52,10.52,0,0,1,10.52,10.51H257.71A10.52,10.52,0,0,1,268.23,370.89Z" style="fill: rgb(224, 224, 224); transform-origin: 288.995px 376.145px;" id="elpc53sbc9edq" class="animable"></path></g><g id="freepik--Shadow--inject-1" class="animable" style="transform-origin: 250px 419.31px;"><ellipse id="freepik--path--inject-1" cx="250" cy="419.31" rx="193.89" ry="14.39" style="fill: rgb(245, 245, 245); transform-origin: 250px 419.31px;" class="animable"></ellipse></g><g id="freepik--Smoke--inject-1" class="animable" style="transform-origin: 249.63px 392.25px;"><path d="M109.62,404.91s-9.09-29.73,16-36.85,45.64,20.78,45.64,20.78a15.84,15.84,0,0,1,12.48-15.68c13.08-3.37,12.91,15.54,12.91,15.54s11.17-21.18,32.84-16.6,22.87,23.74,22.87,23.74,14.88-25.64,37.56-17.95,13.63,22.32,13.63,22.32,14.18-20,44.59-15.39,25.12,31.42,25.12,31.42H136.13l-28.28-11.33" style="fill: rgb(38, 50, 56); transform-origin: 240.731px 391.569px;" id="elplwp483rxtb" class="animable"></path><g id="el5n77uug2b02"><path d="M109.62,404.91s-9.09-29.73,16-36.85,45.64,20.78,45.64,20.78a15.84,15.84,0,0,1,12.48-15.68c13.08-3.37,12.91,15.54,12.91,15.54s11.17-21.18,32.84-16.6,22.87,23.74,22.87,23.74,14.88-25.64,37.56-17.95,13.63,22.32,13.63,22.32,14.18-20,44.59-15.39,25.12,31.42,25.12,31.42H136.13l-28.28-11.33" style="fill: rgb(255, 255, 255); opacity: 0.6; transform-origin: 240.731px 391.569px;" class="animable"></path></g><g id="ely34w0v0jdb"><path d="M143.44,411.66c-6.22-.79,17.95-4.42,17.95-4.42s-4-4.11,4.12-6.61,17.59,5,17.59,5,2.93-7.63,13.53-8.17A17,17,0,0,1,212,405.22s4.35-3.92,9.89-3.53,7.6,5.55,7.6,5.55,2.54-9.95,15.67-8.75S259.37,408,259.37,408s6.72-10.4,19.82-8.76,12.57,8,12.57,8,5.82-4.52,11.48-3.85,6.11,4.63,6.11,4.63,25.77-3.43,38.77,4.81S188,417.28,143.44,411.66Z" style="isolation: isolate; opacity: 0.4; transform-origin: 245.616px 407.514px;" class="animable"></path></g><path d="M212,417.4H413.19c14.4,0,20.33-6.07,19.14-12.49s-11.47-3.23-11.47-3.23,2.69-9.95-5-17.36S395,381.05,394.46,392c0,0-2.91-7.2-18.52-4.87s-11.39,16.3-11.39,16.3-3.32-6.63-16.43-7.13-12.71,14.3-12.71,14.3Z" style="fill: rgb(38, 50, 56); transform-origin: 322.239px 398.99px;" id="eliitkzddrr9t" class="animable"></path><g id="elyhu4bxoetri"><path d="M212,417.4H413.19c14.4,0,20.33-6.07,19.14-12.49s-11.47-3.23-11.47-3.23,2.69-9.95-5-17.36S395,381.05,394.46,392c0,0-2.91-7.2-18.52-4.87s-11.39,16.3-11.39,16.3-3.32-6.63-16.43-7.13-12.71,14.3-12.71,14.3Z" style="fill: rgb(255, 255, 255); opacity: 0.7; transform-origin: 322.239px 398.99px;" class="animable"></path></g><path d="M68.07,410.89s-5.15-8.25,5.14-11c0,0-7.52-8.25,0-14.77s16,0,16.89,3.82c0,0,2.63-11.45,17.13-6.59s13.18,16.84,13.18,16.84,9.68-4.64,17.84,0,8.12,9.87,8.12,9.87L271.9,417.4H78S69.35,415.27,68.07,410.89Z" style="fill: rgb(38, 50, 56); transform-origin: 169.341px 399.274px;" id="el4q1n1176g3p" class="animable"></path><g id="el1hyt9bjzui2"><path d="M68.07,410.89s-5.15-8.25,5.14-11c0,0-7.52-8.25,0-14.77s16,0,16.89,3.82c0,0,2.63-11.45,17.13-6.59s13.18,16.84,13.18,16.84,9.68-4.64,17.84,0,8.12,9.87,8.12,9.87L271.9,417.4H78S69.35,415.27,68.07,410.89Z" style="fill: rgb(255, 255, 255); opacity: 0.8; transform-origin: 169.341px 399.274px;" class="animable"></path></g></g><g id="freepik--pumpkin-2--inject-1" class="animable" style="transform-origin: 348.966px 320.255px;"><path d="M380.19,340s-1-6.9-13.79-12.91-2.21-36.21,0-54.87,1.36-32.75,0-38.39,1.83-18.18,1.83-18.18-6,1.6-7.11,4S359.67,243.2,358.6,250s-2.4,21-6.73,36.75-7.3,28.38-9.22,31.71-9.91,6.87-15.6,11.37-10.87,11.64-8.41,14.66S380.19,340,380.19,340Z" style="fill: rgb(38, 50, 56); transform-origin: 349.101px 280.428px;" id="elga5ya83ojds" class="animable"></path><g id="elri2lyo80vx"><path d="M380.2,340s-9.62,1.22-21.25,2.48h0c-17.21,1.87-38.84,3.81-40.3,2-2.46-3,2.71-10.15,8.41-14.66s13.69-8,15.61-11.37,4.87-15.95,9.21-31.71,5.66-30,6.73-36.75,1.43-27.88,2.52-30.31,6.82-4,7.1-4h0s-3.2,12.55-1.83,18.19,2.2,19.73,0,38.38-12.8,48.86,0,54.87S380.2,340,380.2,340Z" style="fill: rgb(255, 255, 255); opacity: 0.2; transform-origin: 349.111px 280.441px;" class="animable"></path></g><g id="el1hamg5ug7fh"><path d="M380.2,340s-9.62,1.22-21.25,2.48h0c-5.12-3.66-8.67-7.61-8.65-9.52,0-5.51,6-5.56,3.73-12.65s8-37.56,9-43.93,1.55-37.57,1.84-46.92c.29-9.07,3.22-13.53,3.4-13.8h0s-3.2,12.55-1.83,18.19,2.2,19.73,0,38.38-12.8,48.86,0,54.87S380.2,340,380.2,340Z" style="isolation: isolate; opacity: 0.2; transform-origin: 365.25px 279.07px;" class="animable"></path></g><path d="M388.67,415.65s-7.11,13.2-32.67,7.45c0,0-30,6.25-40.41-4.81,0,0-16.21,0-20.83-22.17h0a56.92,56.92,0,0,1-1.08-8.2c-1.35-21.64,10.24-48.92,19.46-53,6.14-2.69,10.24-3.66,12.72-4h0a9.83,9.83,0,0,1,3.05-.07s5.37-5.75,16.44-6.06,17.62,5,17.62,5a23.06,23.06,0,0,1,2.56-.19c2.86-.09,7.58.24,11.49,2.66,10.71,6.66,11.64,12.72,11.64,12.72s5.5.25,9.92,9.28a40.19,40.19,0,0,1,2.41,6.37C405.45,376,405.17,409.29,388.67,415.65Z" style="fill: rgb(64, 123, 255); transform-origin: 348.508px 374.818px;" id="elth5kjes6t3h" class="animable"></path><g id="elwfnin1oboa"><path d="M388.67,415.65s-7.11,13.2-32.67,7.45c0,0-30,6.25-40.41-4.81,0,0-16.21,0-20.83-22.17,2.57,5.23,9.25,16.49,19.64,17.59,0,0-6.51-29.77,5.24-57.11a322.1,322.1,0,0,0-2.58,37.07c-.05,18.36,4.72,20.27,9.25,23.13s25.24,4.66,27.86,1.49,9.49-35.24,10.21-58.28a61.51,61.51,0,0,1,.74,18.22c-1.19,9-1.42,29-2.38,33s-1.9,7.09-1.9,7.09,21.67-.21,25-3.46,9.77-40.79,4.05-63.7c0,0,4.76,8.81,5,14.14s.47,31.52-1.2,35.46,11.26-10.6,4.89-46.39a40.19,40.19,0,0,1,2.41,6.37C405.45,376,405.17,409.29,388.67,415.65Z" style="isolation: isolate; opacity: 0.2; transform-origin: 349.102px 388.01px;" class="animable"></path></g><g id="elcf6tctv23ag"><path d="M364.65,348A85.1,85.1,0,0,0,363,329.87a23.06,23.06,0,0,1,2.56-.19C368.49,336.83,364.65,348,364.65,348Z" style="isolation: isolate; opacity: 0.2; transform-origin: 364.831px 338.84px;" class="animable"></path></g><g id="el7dhy70sq1nk"><path d="M328.92,330.92c-3.81,4-6.9,14.39-6.9,14.39s.56-8.45,3.84-14.32h0A9.83,9.83,0,0,1,328.92,330.92Z" style="isolation: isolate; opacity: 0.2; transform-origin: 325.47px 338.071px;" class="animable"></path></g><path d="M329.76,360.3c-2.78-4.43,1.77-8.08,7.5-10.37-.51,2.55-.75,6.1,1.55,6.67,4.27,1.06,4.58-4.88,4.38-8.5,4.68-1.07,8.79-1.14,9.13.08C358,368.24,335.71,369.78,329.76,360.3Z" style="fill: rgb(38, 50, 56); transform-origin: 341.08px 356.602px;" id="elpp5ub1ju6ec" class="animable"></path><path d="M373,368.05c-4-5.54-1.19-14.09,1-16.13,1-1,3.24.23,5.67,2.39-.57,1.79-1.45,5.24-.62,7.44,1.66,4.34,4,.66,4.58-3.27,2.57,3.11,4.7,6.59,5.1,8.9C389.65,373,377,373.6,373,368.05Z" style="fill: rgb(38, 50, 56); transform-origin: 379.879px 361.742px;" id="ela1ea0ni45y7" class="animable"></path><path d="M353.23,380.19s7.44-12.28,9.75-12.8,5.48,11.25,5.24,13.54-3.08-2.22-5.35-2.7S356.35,384.31,353.23,380.19Z" style="fill: rgb(38, 50, 56); transform-origin: 360.731px 374.474px;" id="elqaz2ltazyk" class="animable"></path><g id="el59ac1buuv8"><path d="M336,353.9s-5.54,3-5.63,4.47,1.76,6.71,8.22,6.87,8.44-1.16,10.47-4.19,1-9.39.42-9.92-5.47.9-5.47.9.46,8.93-3,8.57S335.77,359.17,336,353.9Z" style="isolation: isolate; opacity: 0.4; transform-origin: 340.314px 358.133px;" class="animable"></path></g><g id="el8zmjkvfjhw4"><path d="M373.19,356.6l2.68,2s-1.61,6,.45,7.29,5.71-1.66,6.43-3.18c0,0,2.59,3.84,2.94,5.72s-2.23,2.5-2.23,2.5-7.68.36-10.27-3.57S371.32,356.89,373.19,356.6Z" style="isolation: isolate; opacity: 0.4; transform-origin: 378.615px 363.769px;" class="animable"></path></g><g id="el8mg70vs4d1k"><path d="M354.79,379.17s4.47-7.68,5.94-8.57,3.89,3.84,3.53,7.68a6.68,6.68,0,0,0-2.5-.45C361,378,354.88,383.37,354.79,379.17Z" style="isolation: isolate; opacity: 0.4; transform-origin: 359.543px 375.631px;" class="animable"></path></g><path d="M298.64,357.32a.9.9,0,0,0-1.21.42.92.92,0,0,0,.43,1.21,52.09,52.09,0,0,1,16,12,.88.88,0,0,0,.69.33.91.91,0,0,0,.7-1.48A52.8,52.8,0,0,0,298.64,357.32Z" style="fill: rgb(64, 123, 255); transform-origin: 306.398px 364.254px;" id="ellwrcgzztz9h" class="animable"></path><path d="M312.07,404.72c-.09,0-8.52.64-15.06-3.11a.91.91,0,0,0-1.23.34.89.89,0,0,0,.34,1.23c5.22,3,11.35,3.4,14.32,3.4,1,0,1.68-.05,1.77-.06a.9.9,0,0,0,.83-1A.92.92,0,0,0,312.07,404.72Z" style="fill: rgb(64, 123, 255); transform-origin: 304.352px 404.038px;" id="els7xu444kpj" class="animable"></path><path d="M403.64,374a.9.9,0,0,0-1.07.69c-1.15,5.33-6.5,7.75-6.56,7.77a.9.9,0,0,0,.37,1.73.78.78,0,0,0,.36-.08c.25-.11,6.24-2.8,7.59-9A.9.9,0,0,0,403.64,374Z" style="fill: rgb(64, 123, 255); transform-origin: 399.908px 379.085px;" id="el1ylh9m23i3i" class="animable"></path><path d="M391,410.55a.9.9,0,0,0-1.28-.05.89.89,0,0,0-.05,1.27l2.15,2.33a.91.91,0,0,0,.66.29.89.89,0,0,0,.61-.24.9.9,0,0,0,.05-1.28Z" style="fill: rgb(64, 123, 255); transform-origin: 391.405px 412.323px;" id="elw6viscvr6xp" class="animable"></path><g id="el22awlav6wog"><g style="opacity: 0.7; transform-origin: 350.009px 385.809px;" class="animable"><path d="M298.64,357.32a.9.9,0,0,0-1.21.42.92.92,0,0,0,.43,1.21,52.09,52.09,0,0,1,16,12,.88.88,0,0,0,.69.33.91.91,0,0,0,.7-1.48A52.8,52.8,0,0,0,298.64,357.32Z" style="fill: rgb(255, 255, 255); transform-origin: 306.398px 364.254px;" id="elzgd1pnmgthg" class="animable"></path><path d="M312.07,404.72c-.09,0-8.52.64-15.06-3.11a.91.91,0,0,0-1.23.34.89.89,0,0,0,.34,1.23c5.22,3,11.35,3.4,14.32,3.4,1,0,1.68-.05,1.77-.06a.9.9,0,0,0,.83-1A.92.92,0,0,0,312.07,404.72Z" style="fill: rgb(255, 255, 255); transform-origin: 304.352px 404.038px;" id="el33tv8r7szci" class="animable"></path><path d="M403.64,374a.9.9,0,0,0-1.07.69c-1.15,5.33-6.5,7.75-6.56,7.77a.9.9,0,0,0,.37,1.73.78.78,0,0,0,.36-.08c.25-.11,6.24-2.8,7.59-9A.9.9,0,0,0,403.64,374Z" style="fill: rgb(255, 255, 255); transform-origin: 399.908px 379.085px;" id="el5xy8osjyuu" class="animable"></path><path d="M391,410.55a.9.9,0,0,0-1.28-.05.89.89,0,0,0-.05,1.27l2.15,2.33a.91.91,0,0,0,.66.29.89.89,0,0,0,.61-.24.9.9,0,0,0,.05-1.28Z" style="fill: rgb(255, 255, 255); transform-origin: 391.405px 412.323px;" id="eltra6b7tym0j" class="animable"></path></g></g><path d="M313.14,368.46s33.14,2,53.51,5,31.59,8.73,31.59,8.73c-.9,18.59-6.44,30.25-6.44,30.25S380,420.78,354,419.53c-25.77-1.23-43.51-12.83-43.51-12.83A111,111,0,0,1,313.14,368.46Z" style="fill: rgb(64, 123, 255); transform-origin: 354.063px 394.059px;" id="elf7z0axz8sgq" class="animable"></path><g id="elrtwe00zcvqj"><g style="opacity: 0.6; transform-origin: 354.063px 394.059px;" class="animable"><path d="M313.14,368.46s33.14,2,53.51,5,31.59,8.73,31.59,8.73c-.9,18.59-6.44,30.25-6.44,30.25S380,420.78,354,419.53c-25.77-1.23-43.51-12.83-43.51-12.83A111,111,0,0,1,313.14,368.46Z" style="fill: rgb(255, 255, 255); transform-origin: 354.063px 394.059px;" id="el2vc677sy1vu" class="animable"></path></g></g><g id="elelb9enktqzv"><g style="opacity: 0.7; transform-origin: 354.051px 394.008px;" class="animable"><path d="M366.65,373.41c-20.37-2.91-53.51-5-53.51-5a111,111,0,0,0-2.7,38.24s17.74,11.59,43.51,12.83c26,1.25,37.85-7.14,37.85-7.14s5.54-11.66,6.45-30.24C398.25,382.15,387,376.31,366.65,373.41Zm23.71,37.75c-2,1.24-12.12,6.69-31.21,6.69-1.67,0-3.4,0-5.11-.13a94.71,94.71,0,0,1-41.9-12.1,111.23,111.23,0,0,1,2.37-35.27c6.69.44,34.26,2.32,51.89,4.84,16.35,2.34,26.79,6.62,30,8.07C395.45,398.55,391.33,408.92,390.36,411.16Z" style="fill: rgb(255, 255, 255); transform-origin: 354.051px 394.008px;" id="elmkda87yc4ub" class="animable"></path></g></g><g id="elxgg106bkt9h"><g style="isolation: isolate; opacity: 0.1; transform-origin: 354.05px 386.818px;" class="animable"><path d="M315.59,381.58s43.34,9,76.92,9.26C392.51,390.84,360.73,397,315.59,381.58Z" id="elu4hhcf4g3dn" class="animable" style="transform-origin: 354.05px 386.818px;"></path></g></g><g id="elowaz29a0ivf"><g style="isolation: isolate; opacity: 0.1; transform-origin: 352.365px 402.431px;" class="animable"><path d="M315.59,397s40.17,13.45,73.55,7.65C389.14,404.6,361.08,415.67,315.59,397Z" id="elvv7eenz03kp" class="animable" style="transform-origin: 352.365px 402.431px;"></path></g></g></g><g id="freepik--pumpkin-1--inject-1" class="animable" style="transform-origin: 181.398px 316.506px;"><path d="M181.74,267.51c13.39-10.69,29.36-.6,40.68-6.75s32-18.9,24.4-37.83c-5.59-14-20.38.83-20.38.83s-6.69-5.7,4.58-13,26.43.81,27.74,21.26-8.36,37.09-8,44.58,10,20.16,6.44,28.74S181.74,267.51,181.74,267.51Z" style="fill: rgb(38, 50, 56); transform-origin: 220.311px 257.261px;" id="elzm0ohzv1h9" class="animable"></path><g id="eliom4i1ouwr"><path d="M250.71,276.65c.31,7.49,10,20.14,6.44,28.74-.81,2-5.21,1-11.5-1.55-21.2-8.7-63.92-36.33-63.92-36.33,13.41-10.68,29.37-.61,40.69-6.75,8.83-4.8,23.36-13.62,25.7-26.27a20.51,20.51,0,0,0-1.3-11.56c-5.59-14-20.37.83-20.37.83a6,6,0,0,1-1-7.76l0,0A17,17,0,0,1,231,210.8c6.41-4.13,14.08-3.3,19.74,1.95,0,0,0,0,0,0,4.28,4,7.41,10.48,8,19.29C260.07,252.51,250.4,269.15,250.71,276.65Z" style="fill: rgb(255, 255, 255); opacity: 0.2; transform-origin: 220.298px 257.316px;" class="animable"></path></g><path d="M246.06,209.44l-.62-.12A4.27,4.27,0,0,1,246.06,209.44Z" style="fill: rgb(255, 255, 255); transform-origin: 245.75px 209.38px;" id="el520jxdxt5k7" class="animable"></path><g id="el1esyeazxlw"><path d="M250.71,276.65c.31,7.49,10,20.14,6.44,28.74-.81,2-5.21,1-11.5-1.55a17.56,17.56,0,0,1-2.7-6.38s-3.17-18,0-26.35,18.81-25.62,14.5-43.48c-1.88-7.81-4.41-12.29-6.67-14.86,4.28,4,7.41,10.48,8,19.29C260.07,252.51,250.4,269.15,250.71,276.65Z" style="isolation: isolate; opacity: 0.2; transform-origin: 250.22px 259.611px;" class="animable"></path></g><g id="eldffzctt601q"><path d="M248.14,234.44s0,0,0,.05a20.51,20.51,0,0,0-1.3-11.56c-5.59-14-20.37.83-20.37.83a6,6,0,0,1-1-7.76l0,0c2.95-.53,2.72,4.23,2.72,4.23s8.74-6.57,13.32-5.89S250.61,227.37,248.14,234.44Z" style="isolation: isolate; opacity: 0.2; transform-origin: 236.66px 224.39px;" class="animable"></path></g><path d="M257.15,302.5s-43.23-23.74-76.08-12.68c-4.77-5.79-9.07-9.25-11.8-9.34,0,0-42.66-28.57-68.33,29-22.88,51.31-7.55,115.22,49.32,109.17,4.41,2,10.86,3.93,20.24,5.23a56,56,0,0,0,21.56-1.16,132.18,132.18,0,0,0,30.5,2C268.6,423,287.82,325.68,257.15,302.5Z" style="fill: rgb(64, 123, 255); transform-origin: 181.398px 349.139px;" id="el02l5g6gqwc23" class="animable"></path><g id="el7avgc1dq8zt"><path d="M257.15,302.5s-43.23-23.74-76.08-12.68c-4.77-5.79-9.07-9.25-11.8-9.34,0,0-42.66-28.57-68.33,29-22.88,51.31-7.55,115.22,49.32,109.17,4.41,2,10.86,3.93,20.24,5.23a56,56,0,0,0,21.56-1.16,132.18,132.18,0,0,0,30.5,2C268.6,423,287.82,325.68,257.15,302.5Z" style="isolation: isolate; opacity: 0.2; transform-origin: 181.398px 349.139px;" class="animable"></path></g><path d="M211,271.11s-17.12-21.42-56.11-12.48-70.14,100.84-49.82,128S158.79,404,158.79,404s11,14.28,32.57,14.87c24.93.68,52.29,2.84,66.25-65S233.39,266.5,211,271.11Z" style="fill: rgb(64, 123, 255); transform-origin: 179.635px 337.752px;" id="el7rut2qzdfv2" class="animable"></path><g id="elk9wi1a9a9oh"><path d="M211,271.11s-7.16.87-14.63,15.59c-2,4-4.08,11.1-6.1,19.7l-2.63,1.38a64.34,64.34,0,0,1,.59,7.81c-.93,7.93-7,5.42-7,5.42,2.11,3.87,5.28,3,5.28,3-4,20.29-7.48,42.14-9.52,49.89-3.62,13.82-15.18,23.73-15.18,23.73s16.32-4.44,21.3-23.93,13-72.35,18-84.59S211,271.11,211,271.11Z" style="isolation: isolate; opacity: 0.2; transform-origin: 186.405px 334.37px;" class="animable"></path></g><path d="M136.57,306.45s-9.5,14.17-20.4,15.38-9.87-1.92-9.87-1.92l1.35-3.84-3-5.77s5.32-10.47,8.15-13.09a24.15,24.15,0,0,1,4.41-2.29,22.25,22.25,0,0,0,3.45,6c-1.84,2.49-6.21,8.94-3.67,11s6-4.26,7.58-7.39A14.61,14.61,0,0,0,136.57,306.45Z" style="fill: rgb(38, 50, 56); transform-origin: 120.61px 308.514px;" id="elp69wqsjrran" class="animable"></path><g id="elvhrgg8253pf"><path d="M107.34,311.4s5.32-11.1,6-11.89,4-2,4-2l2.86,4.11s-5.34,6.23-3.93,9.1,3.73,2.65,3.93,3,3.82-1.59,5.18-6.46c0,0,4.87,2.5,9,1.31,0,0-6.8,9.11-14.28,11.72s-12,.77-12,.77l1.59-3.94Z" style="isolation: isolate; opacity: 0.4; transform-origin: 120.86px 309.6px;" class="animable"></path></g><path d="M213.5,312.2c-.95,12.75-8.87,25.93-23.15,26,0,0-1.79-2.22-8.95-2.68-22-1.38-25-27-25-27,4.94,3.89,14.73,2.4,23.55.91-.4,4.45-.51,11.85,3.15,13.12,4.73,1.62,7.86-2.14,6.46-14.55,2.82-.27,5.13-.2,6.58.52l10.8-4.7Z" style="fill: rgb(38, 50, 56); transform-origin: 184.95px 321.01px;" id="el3h7l44yyaxq" class="animable"></path><g id="elntcc366lktp"><path d="M161,313.67s11.1,1.24,17.79-.68c0,0,.22,10.76,8.49,11.33,0,0,6.63-.38,5.33-11.33l4,.79,10.2-5.26,5.49,7.07s-2.08,20.37-21.86,22.14c0,0-1.14-2.12-6-2.84s-8.24,1.78-17.42-6S161,313.67,161,313.67Z" style="isolation: isolate; opacity: 0.4; transform-origin: 186.387px 323.125px;" class="animable"></path></g><path d="M126.71,331.4s10.2-16.15,14.27-16.49,9.18,20.57,9.18,20.57l-10.37-2.21s1.87-5.61-.51-6.8-3.9,1.87-3.39,5.95Z" style="fill: rgb(38, 50, 56); transform-origin: 138.435px 325.193px;" id="elrn01ww2ypd" class="animable"></path><g id="elwxyhnk8831"><path d="M131.13,331.65S136.27,320,142,317.34c3-1.39,7.65,17.59,7.65,17.59l-7.56-1.83s1.27-3.44.73-5.06a4.42,4.42,0,0,0-4-2.42c-1.78,0-3.31,1.53-3.31,6.37Z" style="isolation: isolate; opacity: 0.4; transform-origin: 140.39px 326.099px;" class="animable"></path></g><path d="M266.38,382.07c-2.56-3.85-8.7-6.76-10.12-7.4l-.06-.05C231,355.25,200,342.23,199.72,342.11a1.29,1.29,0,1,0-1,2.37c.3.13,29.6,12.46,54.22,30.91-27.05,11.2-66.27,16.2-66.67,16.25a1.29,1.29,0,0,0,.15,2.57h.17c.41-.06,41.43-5.28,68.85-17.06,1.62.74,6.76,3.29,8.8,6.36a1.29,1.29,0,0,0,2.14-1.43Z" style="fill: rgb(64, 123, 255); transform-origin: 225.845px 368.088px;" id="elgwoizt4ytji" class="animable"></path><path d="M101.35,323.16c-.21,0-5,.85-7.6,3.24a1.29,1.29,0,0,0,.87,2.24,1.32,1.32,0,0,0,.87-.34c2-1.87,6.24-2.59,6.28-2.6a1.29,1.29,0,0,0-.42-2.54Z" style="fill: rgb(64, 123, 255); transform-origin: 98.0498px 325.897px;" id="elyb8inmzxu6s" class="animable"></path><path d="M99.38,383.39a14.06,14.06,0,0,1-4.89-6.07,1.29,1.29,0,1,0-2.4.93,16.51,16.51,0,0,0,5.9,7.31,1.29,1.29,0,0,0,1.39-2.17Z" style="fill: rgb(64, 123, 255); transform-origin: 95.9454px 381.072px;" id="eld32oy8sfqea" class="animable"></path><g id="eln75krznbq8"><g style="opacity: 0.7; transform-origin: 179.259px 358.682px;" class="animable"><path d="M266.38,382.07c-2.56-3.85-8.7-6.76-10.12-7.4l-.06-.05C231,355.25,200,342.23,199.72,342.11a1.29,1.29,0,1,0-1,2.37c.3.13,29.6,12.46,54.22,30.91-27.05,11.2-66.27,16.2-66.67,16.25a1.29,1.29,0,0,0,.15,2.57h.17c.41-.06,41.43-5.28,68.85-17.06,1.62.74,6.76,3.29,8.8,6.36a1.29,1.29,0,0,0,2.14-1.43Z" style="fill: rgb(255, 255, 255); transform-origin: 225.845px 368.088px;" id="eljvufgnaxs9e" class="animable"></path><path d="M101.35,323.16c-.21,0-5,.85-7.6,3.24a1.29,1.29,0,0,0,.87,2.24,1.32,1.32,0,0,0,.87-.34c2-1.87,6.24-2.59,6.28-2.6a1.29,1.29,0,0,0-.42-2.54Z" style="fill: rgb(255, 255, 255); transform-origin: 98.0498px 325.897px;" id="ele3jfjnsltu" class="animable"></path><path d="M99.38,383.39a14.06,14.06,0,0,1-4.89-6.07,1.29,1.29,0,1,0-2.4.93,16.51,16.51,0,0,0,5.9,7.31,1.29,1.29,0,0,0,1.39-2.17Z" style="fill: rgb(255, 255, 255); transform-origin: 95.9454px 381.072px;" id="elke73ageaf8c" class="animable"></path></g></g><path d="M100.42,323.12a143.4,143.4,0,0,1,40-1c22.12,2.55,60.64,20.22,60.64,20.22l-12.46,51.89S143,412.58,97.7,386.06C97.7,386.06,86.15,363.51,100.42,323.12Z" style="fill: rgb(64, 123, 255); transform-origin: 147.173px 360.794px;" id="elibsbpzx6c3g" class="animable"></path><g id="elmq4p82s7lcd"><path d="M100.42,323.12a143.4,143.4,0,0,1,40-1c22.12,2.55,60.64,20.22,60.64,20.22l-12.46,51.89S143,412.58,97.7,386.06C97.7,386.06,86.15,363.51,100.42,323.12Z" style="fill: rgb(255, 255, 255); opacity: 0.6; transform-origin: 147.173px 360.794px;" class="animable"></path></g><g id="elncwao1esexb"><path d="M201,342.33l-12.47,51.89S143,412.58,97.71,386.06c0,0-.16-.3-.41-.9,48.76,23.15,89.13,7.76,89.13,7.76l11.65-49.63c-56.35-23.91-96.52-18.86-96.52-18.86C91,356.82,97,383.89,97.29,385.11c-2-4.67-9.44-26.4,3.13-62a143.16,143.16,0,0,1,40-1C162.51,324.66,201,342.33,201,342.33Z" style="fill: rgb(255, 255, 255); opacity: 0.7; transform-origin: 147.14px 360.785px;" class="animable"></path></g><g id="eljcruekcuvs"><path d="M98.69,343.3s35.61,1.52,92.94,15.63C191.63,358.93,116.38,351.11,98.69,343.3Z" style="isolation: isolate; opacity: 0.1; transform-origin: 145.16px 351.115px;" class="animable"></path></g><g id="ely4495bt70kq"><path d="M187.38,377.45s-63.3-1.59-90.41-11C97,366.41,117.19,383.23,187.38,377.45Z" style="isolation: isolate; opacity: 0.1; transform-origin: 142.175px 372.555px;" class="animable"></path></g></g><g id="freepik--Skull--inject-1" class="animable" style="transform-origin: 266.605px 383.526px;"><path d="M314.38,413.6s-.15,2.26-3,1.58c0,0-1.4,4.27-6.48,3.22,0,0-1.63,3.59-7,2.55a7.87,7.87,0,0,1-6.88,1.56,7.54,7.54,0,0,1-2.8,1.37l-1.31.16h0a5,5,0,0,1-2.47-.69,9.8,9.8,0,0,1-2.32,1.06c-1.57.08-3.18.11-4.83.08a5.89,5.89,0,0,1-.94-.37,7.72,7.72,0,0,1-.88.33c-1.63-.05-3.31-.16-5-.33v0l-.76-1.56a0,0,0,0,0,0,0l-2.48-5.08-.78-1.62a17.61,17.61,0,0,1-12.59,6.6c-8.1.39-9-5.05-15.29,0s-30.11-26.94-14.38-54.23a11.69,11.69,0,0,1,.93-1.4c.11-.16.24-.31.36-.47l.39-.47c.29-.37.62-.73,1-1.11l.84-.86c.16-.16.33-.33.52-.5l.53-.5.56-.51.58-.51a72.83,72.83,0,0,1,8.44-6.21l.81-.51A104.63,104.63,0,0,1,252,348.24l.61-.28a82.66,82.66,0,0,1,11.46-4.12c.52-.15,1-.29,1.57-.41l1-.23c.28-.07.56-.12.85-.18s.57-.11.85-.17c.84-.16,1.67-.3,2.47-.39.27,0,.53-.07.8-.09a25.41,25.41,0,0,1,4.74-.11c.31,0,.6.06.91.1s.42.06.64.1l.27.06c.18,0,.35.07.52.1s.41.1.6.17a10,10,0,0,1,1.17.38,3.78,3.78,0,0,1,.56.21l.26.11c.23.09.45.19.66.29.49.23,1,.48,1.45.74l0,0,.61.37c.32.19.64.4,1,.62l.52.37c.29.2.57.4.85.63s.58.47.87.71.47.41.71.61l.19.16c1.07,1,2.1,2,3.05,3.08,2.18,2.43,3.91,5.14,5.89,7.71a3.17,3.17,0,0,0,.45.52,5,5,0,0,0,.47.44c.18.15.36.28.56.42l.38.27c.64.43,1.31.83,1.93,1.3l.47.37a6.24,6.24,0,0,1,1.16,1.28,21.31,21.31,0,0,1,2.81,5.87c.62,2.08.78,4.69,2.18,6.39,1.2,1.46,2.78,2.6,3.91,4.2.19.27.37.55.53.82s.19.32.27.48.16.28.23.43.15.32.22.48l.22.55a8.16,8.16,0,0,1,.33,1.14,1.69,1.69,0,0,1,.07.38l0,.19a.18.18,0,0,1,0,.11.81.81,0,0,1,0,.16c0,.08,0,.18,0,.28V385a2.62,2.62,0,0,1,0,.27,4.69,4.69,0,0,1,0,.53,1.9,1.9,0,0,1,0,.25,4.82,4.82,0,0,1-.14.74,7.46,7.46,0,0,1-.35.89,4.19,4.19,0,0,1-.32.59c-.06.09-.13.2-.2.29a5.58,5.58,0,0,1-.44.55,6.48,6.48,0,0,1-.84.81c-3.62,3-.6,13.14,1.84,19.63,0,0,0,0,0,0,.46,1.25.91,2.35,1.29,3.25a0,0,0,0,1,0,0C314.3,413.29,314.38,413.6,314.38,413.6Z" style="fill: rgb(38, 50, 56); transform-origin: 266.645px 383.349px;" id="el4mybb88x1vu" class="animable"></path><g id="elunl2cmm22v"><path d="M314.38,413.6s-.15,2.26-3,1.58c0,0-1.4,4.27-6.48,3.22,0,0-1.63,3.59-7,2.55a7.87,7.87,0,0,1-6.88,1.56,7.54,7.54,0,0,1-2.8,1.37l-1.31.16h0a5,5,0,0,1-2.47-.69,9.8,9.8,0,0,1-2.32,1.06c-1.57.08-3.18.11-4.83.08a5.89,5.89,0,0,1-.94-.37,7.72,7.72,0,0,1-.88.33c-1.63-.05-3.31-.16-5-.33v0l-.51-1v0c-.08-.17-.16-.36-.24-.56a0,0,0,0,0,0,0l-2.48-5.08-.78-1.62a17.61,17.61,0,0,1-12.59,6.6c-8.1.39-9-5.05-15.29,0s-30.11-26.94-14.38-54.23a11.69,11.69,0,0,1,.93-1.4c.11-.16.24-.31.36-.47l.39-.47c.29-.37.62-.73,1-1.11l.84-.86c.16-.16.33-.33.52-.5l.53-.5.56-.51.58-.51a72.83,72.83,0,0,1,8.44-6.21l.81-.51A104.63,104.63,0,0,1,252,348.24l.61-.28a82.66,82.66,0,0,1,11.46-4.12c.52-.15,1-.29,1.57-.41l1-.23c.28-.07.56-.12.85-.18s.57-.11.85-.17c.84-.16,1.67-.3,2.47-.39.27,0,.53-.07.8-.09a25.41,25.41,0,0,1,4.74-.11c.31,0,.6.06.91.1s.42.06.64.1l.27.06c.18,0,.35.07.52.1s.41.1.6.17a10,10,0,0,1,1.17.38,3.78,3.78,0,0,1,.56.21l.26.11c.23.09.45.19.66.29.49.23,1,.48,1.45.74l0,0,.61.37c.32.19.64.4,1,.62l.52.37c.29.2.57.4.85.63s.58.47.87.71.47.41.71.61l.19.16c1.07,1,2.1,2,3.05,3.08,2.18,2.43,3.91,5.14,5.89,7.71a5.8,5.8,0,0,0,.45.52l.47.44c.18.15.36.28.56.42l.38.27c.64.43,1.31.83,1.93,1.3l.47.37a6.24,6.24,0,0,1,1.16,1.28,21.31,21.31,0,0,1,2.81,5.87c.62,2.08.78,4.69,2.18,6.39,1.2,1.46,2.78,2.6,3.91,4.2.19.27.37.55.53.82s.19.32.27.48.16.28.23.43.15.32.22.48l.22.55a8.16,8.16,0,0,1,.33,1.14,1.69,1.69,0,0,1,.07.38l0,.19a.18.18,0,0,1,0,.11.81.81,0,0,1,0,.16c0,.08,0,.18,0,.28V385a5.32,5.32,0,0,1-.05,1.05,4.82,4.82,0,0,1-.14.74,7.46,7.46,0,0,1-.35.89,5.54,5.54,0,0,1-.32.59c-.06.09-.13.2-.2.29a5.58,5.58,0,0,1-.44.55,6.48,6.48,0,0,1-.84.81c-3.62,3-.6,13.14,1.84,19.63,0,0,0,0,0,0,.46,1.25.91,2.35,1.29,3.25a0,0,0,0,1,0,0C314.3,413.29,314.38,413.6,314.38,413.6Z" style="fill: rgb(255, 255, 255); opacity: 0.6; transform-origin: 266.65px 383.349px;" class="animable"></path></g><g id="eld0ss6qb6g9"><path d="M280.6,379.25c.35-3.64-3.29-8.45-12.14-6.2s-12.43,13-3.74,17.68S279.7,388.6,280.6,379.25Z" style="isolation: isolate; opacity: 0.4; transform-origin: 270.178px 382.36px;" class="animable"></path></g><g id="elk78hfgjlco"><path d="M277.58,379.83c.28-3-2.72-7-10-5.12s-10.24,10.74-3.08,14.57S276.83,387.53,277.58,379.83Z" style="isolation: isolate; opacity: 0.4; transform-origin: 268.996px 382.373px;" class="animable"></path></g><g id="el3isyiezi97y"><path d="M289.59,374.25c-.44-1.86-.45-4.05,4.2-6.9s12.74,3.3,11.24,10.34S290.64,378.59,289.59,374.25Z" style="isolation: isolate; opacity: 0.4; transform-origin: 297.309px 373.764px;" class="animable"></path></g><g id="elbtcuias5n6"><path d="M290.19,374.16c-.36-1.51-.36-3.28,3.41-5.59s10.32,2.67,9.11,8.38S291,377.68,290.19,374.16Z" style="isolation: isolate; opacity: 0.4; transform-origin: 296.449px 373.769px;" class="animable"></path></g><g id="elgh8ddzt1eci"><path d="M285.55,392.23c-1.13-3.09-1.35-11.87,2.09-13s9.74,7.58,10.49,9.38-2.69,2.85-3.29,2.7-.75-2.53-1.5-3.66-3-.39-2.85,1,.9,3.31.45,3.6S286.66,395.28,285.55,392.23Z" style="isolation: isolate; opacity: 0.4; transform-origin: 291.521px 386.394px;" class="animable"></path></g><g id="elmdme5d6lh4r"><path d="M285.68,391.82c-1-2.48-1.18-9.53,1.83-10.42s8.52,6.09,9.18,7.53-1.13,2.06-1.65,1.94-1-2.82-1.64-3.73-4.46.52-4.33,1.6.73,3.25.34,3.49S286.65,394.26,285.68,391.82Z" style="isolation: isolate; opacity: 0.4; transform-origin: 290.929px 387.205px;" class="animable"></path></g><g id="elwm6w5rav2vg"><path d="M314.38,413.6s-.15,2.26-3,1.58c0,0-1.4,4.27-6.48,3.22,0,0-1.63,3.59-7,2.55a7.87,7.87,0,0,1-6.88,1.56,7.54,7.54,0,0,1-2.8,1.37l-1.31.16h0a5,5,0,0,1-2.47-.69,9.8,9.8,0,0,1-2.32,1.06c-1.57.08-3.18.11-4.83.08a5.89,5.89,0,0,1-.94-.37,7.72,7.72,0,0,1-.88.33c-1.63-.05-3.31-.16-5-.33v0a9.44,9.44,0,0,1-.51-1v0c-.08-.17-.16-.36-.24-.56a0,0,0,0,0,0,0l-2.48-5.08c1.32-1.84,2.85-3.67,3.48-3.67,1.5,0,3.74,1.64,5.54,1.42s2.25-3.07,4.2-3.37,3.75,2.55,5.23,1.2,3.31-2.7,4.79-3,3.61,2.39,5.13,0,3.72-1.95,5.74-1.35,1.58-1.8,3.66-3.45,5.72,1.06,4.82,0,.15-5.87-2.16-8.64-6.6-6.89-4.73-7.34,3.07,2.24,7.08.59a5.12,5.12,0,0,0,3.38-4.59,2.62,2.62,0,0,0,0-.27,5.32,5.32,0,0,1-.05,1.05,4.82,4.82,0,0,1-.14.74,7.46,7.46,0,0,1-.35.89,5.54,5.54,0,0,1-.32.59c-.06.09-.13.2-.2.29a5.58,5.58,0,0,1-.44.55,6.48,6.48,0,0,1-.84.81c-3.62,3-.6,13.14,1.84,19.63,0,0,0,0,0,0,.46,1.25.91,2.35,1.29,3.25a0,0,0,0,1,0,0C314.3,413.29,314.38,413.6,314.38,413.6Z" style="isolation: isolate; opacity: 0.2; transform-origin: 290.81px 404.756px;" class="animable"></path></g><g id="elgt6su0mg5sl"><path d="M266.37,415.8h0a17.61,17.61,0,0,1-12.59,6.6c-8.1.39-9-5.05-15.29,0s-30.11-26.94-14.38-54.23a11.69,11.69,0,0,1,.93-1.4c-.26.75-5.5,16-2.73,26.19,2.85,10.49,12.44,20.83,16,20.24s5.84-6.91,9-6.37c0,0,3.32,6.43,9.85,7.73,9.21,1.83,9.8-5.47,10.87-10.78.45-2.24,3.11-5.16,5.4-3.69C277.07,402.39,266.24,407.86,266.37,415.8Z" style="isolation: isolate; opacity: 0.2; transform-origin: 246.504px 394.85px;" class="animable"></path></g><g id="eljadttjptxzp"><path d="M249.28,362.26c2.91-.81,9.29,2.6,8.25,4.52s-6.15,7-6,11.36,2.21,10.34,1.93,11.84-7,4.8-8.07,3.67-1.2-5.3.75-6,4-.36,3.59-5.32.7-14,1.4-15-4.69-1.35-4.69-1.35S245.54,363.31,249.28,362.26Z" style="isolation: isolate; opacity: 0.1; transform-origin: 251.132px 378.01px;" class="animable"></path></g><g id="elx58y0s26p4"><path d="M282,382.35s0-6.76,2.1-7.8,4.57.82,5.36,2.13a9.27,9.27,0,0,0,2.75,2.47s-3.45-2.73-5.1-2.47S282.85,383.11,282,382.35Z" style="isolation: isolate; opacity: 0.1; transform-origin: 287.105px 378.331px;" class="animable"></path></g><g id="eltg55dqs6eur"><path d="M301.32,362.13c-2.4-1.67-7.23-2.87-8.28-1.67s-3.07-.83-3.63-2.36.39-5.23-1.29-10.08c1.07,1,2.1,2,3.05,3.08,2.18,2.43,3.91,5.14,5.89,7.71C298.19,360.29,299.9,360.92,301.32,362.13Z" style="isolation: isolate; opacity: 0.1; transform-origin: 294.72px 355.075px;" class="animable"></path></g><path d="M314.38,413.6s-.15,2.26-3,1.58c0,0-1.4,4.27-6.48,3.22,0,0-1.63,3.59-7,2.55a7.87,7.87,0,0,1-6.88,1.56,7.54,7.54,0,0,1-2.8,1.37,5.53,5.53,0,0,1-1.31.16h0a5,5,0,0,1-2.47-.69,9.8,9.8,0,0,1-2.32,1.06,8.09,8.09,0,0,1-4.83.08,5.89,5.89,0,0,1-.94-.37,7.72,7.72,0,0,1-.88.33,5.91,5.91,0,0,1-5-.33v0a9.44,9.44,0,0,1-.51-1v0c-.08-.17-.16-.36-.24-.56a0,0,0,0,0,0,0c-.59-1.56-1-3.91.78-5.46,2.91-2.49,5.76,4.53,5.76,4.53s-.41-6.47,3.32-6.4c2.06,0,3.34,2,4.08,3.73-.2-1.38,0-3,1.44-3.73,2.66-1.4,4.84,3.68,5.3,4.8-.31-1-1.43-5.07,1.59-6.38,3.25-1.4,5,4.06,5.19,4.73-.1-.67-.94-6.43,1.43-7.12s5.08,4.48,5.5,5.28c-.33-.83-2.46-6.59.89-7.84,2.77-1,4.47,2.49,5.12,4.21-.48-1.64-1.27-5,.3-5.55.91-.33,1.78.81,2.49,2.2,0,0,0,0,0,0a25.18,25.18,0,0,1,1.29,3.25,0,0,0,0,1,0,0C314.3,413.29,314.38,413.6,314.38,413.6Z" style="fill: rgb(38, 50, 56); transform-origin: 291.798px 416.078px;" id="el7xzcfh09n6p" class="animable"></path><g id="elsqloc3zqlm"><path d="M314.38,413.6s-.15,2.26-3,1.58c0,0-1.4,4.27-6.48,3.22,0,0-1.63,3.59-7,2.55a7.87,7.87,0,0,1-6.88,1.56,7.54,7.54,0,0,1-2.8,1.37,5.53,5.53,0,0,1-1.31.16h0a5,5,0,0,1-2.47-.69,9.8,9.8,0,0,1-2.32,1.06,8.09,8.09,0,0,1-4.83.08,5.89,5.89,0,0,1-.94-.37,7.72,7.72,0,0,1-.88.33,5.91,5.91,0,0,1-5-.33v0a9.44,9.44,0,0,1-.51-1v0c-.08-.17-.16-.36-.24-.56a0,0,0,0,0,0,0c-.59-1.56-1-3.91.78-5.46,2.91-2.49,5.76,4.53,5.76,4.53s-.41-6.47,3.32-6.4c2.06,0,3.34,2,4.08,3.73-.2-1.38,0-3,1.44-3.73,2.66-1.4,4.84,3.68,5.3,4.8-.31-1-1.43-5.07,1.59-6.38,3.25-1.4,5,4.06,5.19,4.73-.1-.67-.94-6.43,1.43-7.12s5.08,4.48,5.5,5.28c-.33-.83-2.46-6.59.89-7.84,2.77-1,4.47,2.49,5.12,4.21-.48-1.64-1.27-5,.3-5.55.91-.33,1.78.81,2.49,2.2,0,0,0,0,0,0a25.18,25.18,0,0,1,1.29,3.25,0,0,0,0,1,0,0C314.3,413.29,314.38,413.6,314.38,413.6Z" style="fill: rgb(255, 255, 255); opacity: 0.6; transform-origin: 291.798px 416.078px;" class="animable"></path></g></g><defs>     <filter id="active" height="200%">         <feMorphology in="SourceAlpha" result="DILATED" operator="dilate" radius="2"></feMorphology>                <feFlood flood-color="#32DFEC" flood-opacity="1" result="PINK"></feFlood>        <feComposite in="PINK" in2="DILATED" operator="in" result="OUTLINE"></feComposite>        <feMerge>            <feMergeNode in="OUTLINE"></feMergeNode>            <feMergeNode in="SourceGraphic"></feMergeNode>        </feMerge>    </filter>    <filter id="hover" height="200%">        <feMorphology in="SourceAlpha" result="DILATED" operator="dilate" radius="2"></feMorphology>                <feFlood flood-color="#ff0000" flood-opacity="0.5" result="PINK"></feFlood>        <feComposite in="PINK" in2="DILATED" operator="in" result="OUTLINE"></feComposite>        <feMerge>            <feMergeNode in="OUTLINE"></feMergeNode>            <feMergeNode in="SourceGraphic"></feMergeNode>        </feMerge>            <feColorMatrix type="matrix" values="0   0   0   0   0                0   1   0   0   0                0   0   0   0   0                0   0   0   1   0 "></feColorMatrix>    </filter></defs></svg>